<svg
	display="none"
	width="0"
	height="0"
	version="1.1"
	xmlns="http://www.w3.org/2000/svg"
	xmlns:xlink="http://www.w3.org/1999/xlink"
>
	<defs>
		<!-- logo -->
		<symbol id="logo">
			<path fill="currentColor" d="M18.2523 13.6995L2.10475 17.0108C1.11899 17.2122 0.534558 15.9472 1.32652 15.3277L16.354 3.59011C16.47 3.50008 16.6042 3.43752 16.7492 3.407L32.8967 0.0957096C33.8825 -0.105715 34.4669 1.15929 33.6749 1.77882L18.6475 13.5164C18.5315 13.6064 18.3972 13.669 18.2523 13.6995Z" />
		</symbol>

		<!-- icon search -->
		<symbol id="search">
			<path d="M48.1834 51.5852L31.4931 34.8949C30.0029 36.0871 28.2892 37.0309 26.3519 37.7263C24.4146 38.4217 22.3532 38.7694 20.1676 38.7694C14.7532 38.7694 10.1713 36.8938 6.42193 33.1424C2.67258 29.3911 0.796909 24.8092 0.794922 19.3968C0.794922 13.9824 2.67059 9.40052 6.42193 5.65117C10.1733 1.90182 14.7551 0.0261569 20.1676 0.0241699C25.582 0.0241699 30.1638 1.89984 33.9132 5.65117C37.6625 9.40251 39.5382 13.9844 39.5402 19.3968C39.5402 21.5824 39.1925 23.6439 38.4971 25.5811C37.8016 27.5184 36.8578 29.2321 35.6657 30.7223L52.4305 47.4871C52.9769 48.0335 53.2501 48.7041 53.2501 49.4989C53.2501 50.2937 52.952 50.9891 52.3559 51.5852C51.8095 52.1316 51.1141 52.4048 50.2697 52.4048C49.4252 52.4048 48.7298 52.1316 48.1834 51.5852ZM20.1676 32.8086C23.8931 32.8086 27.0602 31.5042 29.6691 28.8953C32.2779 26.2865 33.5814 23.1203 33.5794 19.3968C33.5794 15.6713 32.275 12.5041 29.6661 9.89527C27.0573 7.28642 23.8911 5.98299 20.1676 5.98498C16.4421 5.98498 13.2749 7.2894 10.666 9.89825C8.05718 12.5071 6.75375 15.6733 6.75573 19.3968C6.75573 23.1223 8.06016 26.2895 10.669 28.8983C13.2779 31.5072 16.444 32.8106 20.1676 32.8086Z" fill="currentColor"/>
		</symbol>

		<!-- icon close -->
		<symbol id="close">
			<path d="M19.8652 1.39258L1.36523 19.8926" stroke="currentColor" stroke-width="2" />
			<path d="M1.36523 1.39258L19.8652 19.8926" stroke="currentColor" stroke-width="2" />
			<path d="M19.8652 1.39258L1.36523 19.8926" stroke="currentColor" stroke-width="2" />
		</symbol>

		<!-- icon prev -->
		<symbol id="prev">
			<path d="M5.74805 9.53369L1.74805 5.53369L5.74805 1.53369" stroke="currentColor" stroke-width="2" stroke-linecap="round"/>
		</symbol>

		<!-- icon next -->
		<symbol id="next">
			<path d="M1.18555 1.53369L5.18555 5.53369L1.18555 9.53369" stroke="currentColor" stroke-width="2" stroke-linecap="round"/>
		</symbol>

		<!-- icon arrowDown -->
		<symbol id="arrowDown">
			<path fill="currentColor" fill-rule="evenodd" clip-rule="evenodd" d="M1.175 0.950001L5 4.76667L8.825 0.950001L10 2.125L5 7.125L0 2.125L1.175 0.950001Z" />
		</symbol>

		<!-- icon arrowRight -->
		<symbol id="arrowRight">
			<path d="M1.71875 1.51172L4.28125 4.07422L1.71875 6.63672" stroke="currentColor" stroke-width="2" stroke-linecap="round"/>
		</symbol>

		<!-- icon arrowRight -->
		<symbol id="arrowUp">
			<path fill="currentColor" d="M240.971 130.524l194.343 194.343c9.373 9.373 9.373 24.569 0 33.941l-22.667 22.667c-9.357 9.357-24.522 9.375-33.901.04L224 227.495 69.255 381.516c-9.379 9.335-24.544 9.317-33.901-.04l-22.667-22.667c-9.373-9.373-9.373-24.569 0-33.941L207.03 130.525c9.372-9.373 24.568-9.373 33.941-.001z" />
		</symbol>

		<!-- icon twitter -->
		<symbol id="twitter">
			<path fill="currentColor" d="M459.37 151.716c.325 4.548.325 9.097.325 13.645 0 138.72-105.583 298.558-298.558 298.558-59.452 0-114.68-17.219-161.137-47.106 8.447.974 16.568 1.299 25.34 1.299 49.055 0 94.213-16.568 130.274-44.832-46.132-.975-84.792-31.188-98.112-72.772 6.498.974 12.995 1.624 19.818 1.624 9.421 0 18.843-1.3 27.614-3.573-48.081-9.747-84.143-51.98-84.143-102.985v-1.299c13.969 7.797 30.214 12.67 47.431 13.319-28.264-18.843-46.781-51.005-46.781-87.391 0-19.492 5.197-37.36 14.294-52.954 51.655 63.675 129.3 105.258 216.365 109.807-1.624-7.797-2.599-15.918-2.599-24.04 0-57.828 46.782-104.934 104.934-104.934 30.213 0 57.502 12.67 76.67 33.137 23.715-4.548 46.456-13.32 66.599-25.34-7.798 24.366-24.366 44.833-46.132 57.827 21.117-2.273 41.584-8.122 60.426-16.243-14.292 20.791-32.161 39.308-52.628 54.253z"></path>
		</symbol>

		<!-- icon youtube -->
		<symbol id="youtube">
			<path fill="currentColor" d="M549.655 124.083c-6.281-23.65-24.787-42.276-48.284-48.597C458.781 64 288 64 288 64S117.22 64 74.629 75.486c-23.497 6.322-42.003 24.947-48.284 48.597-11.412 42.867-11.412 132.305-11.412 132.305s0 89.438 11.412 132.305c6.281 23.65 24.787 41.5 48.284 47.821C117.22 448 288 448 288 448s170.78 0 213.371-11.486c23.497-6.321 42.003-24.171 48.284-47.821 11.412-42.867 11.412-132.305 11.412-132.305s0-89.438-11.412-132.305zm-317.51 213.508V175.185l142.739 81.205-142.739 81.201z"></path>
		</symbol>

		<!-- icon facebook -->
		<symbol id="facebook">
			<path fill="currentColor" d="M279.14 288l14.22-92.66h-88.91v-60.13c0-25.35 12.42-50.06 52.24-50.06h40.42V6.26S260.43 0 225.36 0c-73.22 0-121.08 44.38-121.08 124.72v70.62H22.89V288h81.39v224h100.17V288z"></path>
		</symbol>

		<!-- icon instagram -->
		<symbol id="instagram">
			<path fill="currentColor" d="M18.1093 0.35083H7.22448C5.54105 0.352631 3.92708 1.02217 2.73671 2.21254C1.54634 3.40291 0.876801 5.01688 0.875 6.70031V17.5851C0.876801 19.2686 1.54634 20.8826 2.73671 22.0729C3.92708 23.2633 5.54105 23.9328 7.22448 23.9346H18.1093C19.7927 23.9328 21.4067 23.2633 22.5971 22.0729C23.7875 20.8826 24.457 19.2686 24.4588 17.5851V6.70031C24.457 5.01688 23.7875 3.40291 22.5971 2.21254C21.4067 1.02217 19.7927 0.352631 18.1093 0.35083ZM12.6669 17.5851C11.5905 17.5851 10.5383 17.266 9.64326 16.6679C8.74825 16.0699 8.05069 15.2199 7.63876 14.2255C7.22684 13.231 7.11906 12.1367 7.32906 11.081C7.53906 10.0252 8.0574 9.0555 8.81853 8.29436C9.57967 7.53323 10.5494 7.01489 11.6051 6.80489C12.6609 6.59489 13.7552 6.70267 14.7496 7.11459C15.7441 7.52652 16.5941 8.22408 17.1921 9.11909C17.7901 10.0141 18.1093 11.0663 18.1093 12.1427C18.1078 13.5857 17.5339 14.9691 16.5136 15.9894C15.4933 17.0098 14.1099 17.5836 12.6669 17.5851ZM19.4699 6.70031C19.2008 6.70031 18.9378 6.62052 18.714 6.47101C18.4903 6.32151 18.3159 6.10901 18.2129 5.86039C18.1099 5.61177 18.083 5.3382 18.1355 5.07427C18.188 4.81034 18.3175 4.5679 18.5078 4.37762C18.6981 4.18733 18.9405 4.05775 19.2045 4.00525C19.4684 3.95275 19.742 3.9797 19.9906 4.08268C20.2392 4.18566 20.4517 4.36005 20.6012 4.5838C20.7507 4.80755 20.8305 5.07061 20.8305 5.33971C20.8305 5.70057 20.6872 6.04664 20.432 6.3018C20.1768 6.55697 19.8308 6.70031 19.4699 6.70031ZM16.2952 12.1427C16.2952 12.8603 16.0824 13.5618 15.6837 14.1585C15.285 14.7552 14.7184 15.2202 14.0554 15.4948C13.3924 15.7694 12.6629 15.8413 11.9591 15.7013C11.2552 15.5613 10.6087 15.2157 10.1013 14.7083C9.5939 14.2009 9.24834 13.5544 9.10834 12.8506C8.96834 12.1468 9.04019 11.4172 9.31481 10.7542C9.58942 10.0913 10.0545 9.52461 10.6511 9.12593C11.2478 8.72725 11.9493 8.51445 12.6669 8.51445C13.6292 8.51445 14.552 8.89672 15.2325 9.57715C15.9129 10.2576 16.2952 11.1805 16.2952 12.1427Z" />
		</symbol>

		<!-- icon linkedin -->
		<symbol id="linkedin">
			<path fill="currentColor" d="M416 32H31.9C14.3 32 0 46.5 0 64.3v383.4C0 465.5 14.3 480 31.9 480H416c17.6 0 32-14.5 32-32.3V64.3c0-17.8-14.4-32.3-32-32.3zM135.4 416H69V202.2h66.5V416zm-33.2-243c-21.3 0-38.5-17.3-38.5-38.5S80.9 96 102.2 96c21.2 0 38.5 17.3 38.5 38.5 0 21.3-17.2 38.5-38.5 38.5zm282.1 243h-66.4V312c0-24.8-.5-56.7-34.5-56.7-34.6 0-39.9 27-39.9 54.9V416h-66.4V202.2h63.7v29.2h.9c8.9-16.8 30.6-34.5 62.9-34.5 67.2 0 79.7 44.3 79.7 101.9V416z"></path>
		</symbol>

		<!-- icon pinterest -->
		<symbol id="pinterest">
			<path fill="currentColor" d="M496 256c0 137-111 248-248 248-25.6 0-50.2-3.9-73.4-11.1 10.1-16.5 25.2-43.5 30.8-65 3-11.6 15.4-59 15.4-59 8.1 15.4 31.7 28.5 56.8 28.5 74.8 0 128.7-68.8 128.7-154.3 0-81.9-66.9-143.2-152.9-143.2-107 0-163.9 71.8-163.9 150.1 0 36.4 19.4 81.7 50.3 96.1 4.7 2.2 7.2 1.2 8.3-3.3.8-3.4 5-20.3 6.9-28.1.6-2.5.3-4.7-1.7-7.1-10.1-12.5-18.3-35.3-18.3-56.6 0-54.7 41.4-107.6 112-107.6 60.9 0 103.6 41.5 103.6 100.9 0 67.1-33.9 113.6-78 113.6-24.3 0-42.6-20.1-36.7-44.8 7-29.5 20.5-61.3 20.5-82.6 0-19-10.2-34.9-31.4-34.9-24.9 0-44.9 25.7-44.9 60.2 0 22 7.4 36.8 7.4 36.8s-24.5 103.8-29 123.2c-5 21.4-3 51.6-.9 71.2C65.4 450.9 0 361.1 0 256 0 119 111 8 248 8s248 111 248 248z"></path>
		</symbol>

	</defs>
</svg>
