<svg
	display="none"
	width="0"
	height="0"
	version="1.1"
	xmlns="http://www.w3.org/2000/svg"
	xmlns:xlink="http://www.w3.org/1999/xlink"
>
	<defs>
		<!-- logo -->
		<symbol id="logo">
			<path fill="currentColor" d="M18.2523 13.6995L2.10475 17.0108C1.11899 17.2122 0.534558 15.9472 1.32652 15.3277L16.354 3.59011C16.47 3.50008 16.6042 3.43752 16.7492 3.407L32.8967 0.0957096C33.8825 -0.105715 34.4669 1.15929 33.6749 1.77882L18.6475 13.5164C18.5315 13.6064 18.3972 13.669 18.2523 13.6995Z" />
		</symbol>

		<!-- icon search -->
		<symbol id="search">
			<path d="M48.1834 51.5852L31.4931 34.8949C30.0029 36.0871 28.2892 37.0309 26.3519 37.7263C24.4146 38.4217 22.3532 38.7694 20.1676 38.7694C14.7532 38.7694 10.1713 36.8938 6.42193 33.1424C2.67258 29.3911 0.796909 24.8092 0.794922 19.3968C0.794922 13.9824 2.67059 9.40052 6.42193 5.65117C10.1733 1.90182 14.7551 0.0261569 20.1676 0.0241699C25.582 0.0241699 30.1638 1.89984 33.9132 5.65117C37.6625 9.40251 39.5382 13.9844 39.5402 19.3968C39.5402 21.5824 39.1925 23.6439 38.4971 25.5811C37.8016 27.5184 36.8578 29.2321 35.6657 30.7223L52.4305 47.4871C52.9769 48.0335 53.2501 48.7041 53.2501 49.4989C53.2501 50.2937 52.952 50.9891 52.3559 51.5852C51.8095 52.1316 51.1141 52.4048 50.2697 52.4048C49.4252 52.4048 48.7298 52.1316 48.1834 51.5852ZM20.1676 32.8086C23.8931 32.8086 27.0602 31.5042 29.6691 28.8953C32.2779 26.2865 33.5814 23.1203 33.5794 19.3968C33.5794 15.6713 32.275 12.5041 29.6661 9.89527C27.0573 7.28642 23.8911 5.98299 20.1676 5.98498C16.4421 5.98498 13.2749 7.2894 10.666 9.89825C8.05718 12.5071 6.75375 15.6733 6.75573 19.3968C6.75573 23.1223 8.06016 26.2895 10.669 28.8983C13.2779 31.5072 16.444 32.8106 20.1676 32.8086Z" fill="currentColor"/>
		</symbol>

		<!-- icon close -->
		<symbol id="close">
			<path d="M19.8652 1.39258L1.36523 19.8926" stroke="currentColor" stroke-width="2" />
			<path d="M1.36523 1.39258L19.8652 19.8926" stroke="currentColor" stroke-width="2" />
			<path d="M19.8652 1.39258L1.36523 19.8926" stroke="currentColor" stroke-width="2" />
		</symbol>

		<!-- icon prev -->
		<symbol id="prev">
			<path d="M5.74805 9.53369L1.74805 5.53369L5.74805 1.53369" stroke="currentColor" stroke-width="2" stroke-linecap="round"/>
		</symbol>

		<!-- icon next -->
		<symbol id="next">
			<path d="M1.18555 1.53369L5.18555 5.53369L1.18555 9.53369" stroke="currentColor" stroke-width="2" stroke-linecap="round"/>
		</symbol>

		<!-- icon arrowDown -->
		<symbol id="arrowDown">
			<path fill="currentColor" fill-rule="evenodd" clip-rule="evenodd" d="M1.175 0.950001L5 4.76667L8.825 0.950001L10 2.125L5 7.125L0 2.125L1.175 0.950001Z" />
		</symbol>

		<!-- icon arrowRight -->
		<symbol id="arrowRight">
			<path d="M1.71875 1.51172L4.28125 4.07422L1.71875 6.63672" stroke="currentColor" stroke-width="2" stroke-linecap="round"/>
		</symbol>

		<!-- icon arrowUp -->
		<symbol id="arrowUp">
			<path fill="currentColor" d="M240.971 130.524l194.343 194.343c9.373 9.373 9.373 24.569 0 33.941l-22.667 22.667c-9.357 9.357-24.522 9.375-33.901.04L224 227.495 69.255 381.516c-9.379 9.335-24.544 9.317-33.901-.04l-22.667-22.667c-9.373-9.373-9.373-24.569 0-33.941L207.03 130.525c9.372-9.373 24.568-9.373 33.941-.001z" />
		</symbol>

		<!-- icon youtube -->
		<symbol id="youtube">
			<path fill="currentColor" d="M549.655 124.083c-6.281-23.65-24.787-42.276-48.284-48.597C458.781 64 288 64 288 64S117.22 64 74.629 75.486c-23.497 6.322-42.003 24.947-48.284 48.597-11.412 42.867-11.412 132.305-11.412 132.305s0 89.438 11.412 132.305c6.281 23.65 24.787 41.5 48.284 47.821C117.22 448 288 448 288 448s170.78 0 213.371-11.486c23.497-6.321 42.003-24.171 48.284-47.821 11.412-42.867 11.412-132.305 11.412-132.305s0-89.438-11.412-132.305zm-317.51 213.508V175.185l142.739 81.205-142.739 81.201z"></path>
		</symbol>

		<!-- icon facebook -->
		<symbol id="facebook">
			<path fill="currentColor" d="M279.14 288l14.22-92.66h-88.91v-60.13c0-25.35 12.42-50.06 52.24-50.06h40.42V6.26S260.43 0 225.36 0c-73.22 0-121.08 44.38-121.08 124.72v70.62H22.89V288h81.39v224h100.17V288z"></path>
		</symbol>

		<!-- icon user -->
		<symbol id="user">
			<path fill="currentColor" d="M22.766,0.001C10.194,0.001,0,10.193,0,22.766s10.193,22.765,22.766,22.765c12.574,0,22.766-10.192,22.766-22.765
				S35.34,0.001,22.766,0.001z M22.766,6.808c4.16,0,7.531,3.372,7.531,7.53c0,4.159-3.371,7.53-7.531,7.53
				c-4.158,0-7.529-3.371-7.529-7.53C15.237,10.18,18.608,6.808,22.766,6.808z M22.761,39.579c-4.149,0-7.949-1.511-10.88-4.012
				c-0.714-0.609-1.126-1.502-1.126-2.439c0-4.217,3.413-7.592,7.631-7.592h8.762c4.219,0,7.619,3.375,7.619,7.592
				c0,0.938-0.41,1.829-1.125,2.438C30.712,38.068,26.911,39.579,22.761,39.579z"/>
		</symbol>

		<!-- icon logout -->
		<symbol id="logout">
			<path fill-rule="evenodd" clip-rule="evenodd" d="M16.125 12C16.125 11.5858 15.7892 11.25 15.375 11.25L4.40244 11.25L6.36309 9.56944C6.67759 9.29988 6.71401 8.8264 6.44444 8.51191C6.17488 8.19741 5.7014 8.16099 5.38691 8.43056L1.88691 11.4306C1.72067 11.573 1.625 11.7811 1.625 12C1.625 12.2189 1.72067 12.427 1.88691 12.5694L5.38691 15.5694C5.7014 15.839 6.17488 15.8026 6.44444 15.4881C6.71401 15.1736 6.67759 14.7001 6.36309 14.4306L4.40244 12.75L15.375 12.75C15.7892 12.75 16.125 12.4142 16.125 12Z" fill="currentColor"/>
			<path d="M9.375 8C9.375 8.70219 9.375 9.05329 9.54351 9.3055C9.61648 9.41471 9.71025 9.50848 9.81946 9.58145C10.0717 9.74996 10.4228 9.74996 11.125 9.74996L15.375 9.74996C16.6176 9.74996 17.625 10.7573 17.625 12C17.625 13.2426 16.6176 14.25 15.375 14.25L11.125 14.25C10.4228 14.25 10.0716 14.25 9.8194 14.4185C9.71023 14.4915 9.6165 14.5852 9.54355 14.6944C9.375 14.9466 9.375 15.2977 9.375 16C9.375 18.8284 9.375 20.2426 10.2537 21.1213C11.1324 22 12.5464 22 15.3748 22L16.3748 22C19.2032 22 20.6174 22 21.4961 21.1213C22.3748 20.2426 22.3748 18.8284 22.3748 16L22.3748 8C22.3748 5.17158 22.3748 3.75736 21.4961 2.87868C20.6174 2 19.2032 2 16.3748 2L15.3748 2C12.5464 2 11.1324 2 10.2537 2.87868C9.375 3.75736 9.375 5.17157 9.375 8Z" fill="currentColor"/>
		</symbol>

		<!-- icon bell -->
		<symbol id="bell">
			<path fill="currentColor" d="M381.7,225.9c0-97.6-52.5-130.8-101.6-138.2c0-0.5,0.1-1,0.1-1.6c0-12.3-10.9-22.1-24.2-22.1c-13.3,0-23.8,9.8-23.8,22.1   c0,0.6,0,1.1,0.1,1.6c-49.2,7.5-102,40.8-102,138.4c0,113.8-28.3,126-66.3,158h384C410.2,352,381.7,339.7,381.7,225.9z"/>
			<path fill="currentColor" d="M256.2,448c26.8,0,48.8-19.9,51.7-43H204.5C207.3,428.1,229.4,448,256.2,448z"/>
		</symbol>

		<!-- icon category -->
		<symbol id="category">
			<path fill="currentColor" d="M5.5 7A1.5 1.5 0 0 1 4 5.5A1.5 1.5 0 0 1 5.5 4A1.5 1.5 0 0 1 7 5.5A1.5 1.5 0 0 1 5.5 7m15.91 4.58l-9-9C12.05 2.22 11.55 2 11 2H4c-1.11 0-2 .89-2 2v7c0 .55.22 1.05.59 1.41l8.99 9c.37.36.87.59 1.42.59c.55 0 1.05-.23 1.41-.59l7-7c.37-.36.59-.86.59-1.41c0-.56-.23-1.06-.59-1.42" />
		</symbol>
	</defs>
</svg>
